<?xml version="1.0" encoding="utf-8"?>
<!-- Generator: Adobe Illustrator 27.0.1, SVG Export Plug-In . SVG Version: 6.00 Build 0)  -->
<svg version="1.1" id="Layer_1" xmlns="http://www.w3.org/2000/svg" xmlns:xlink="http://www.w3.org/1999/xlink" x="0px" y="0px"
	 viewBox="0 0 126.8 106" style="enable-background:new 0 0 126.8 106;" xml:space="preserve">
<style type="text/css">
	.st0{fill:#04B8E3;}
	.st1{fill:#7EC9F1;}
	.st2{fill:#4DBAAD;}
</style>
<g id="Group_131329" transform="translate(0 106.773)">
	<g>
		<g id="Group_131264">
			<g id="Group_131259" transform="translate(2.02 -106.773)">
				<path id="Path_131234" class="st0" d="M0,0h7.8v14.4h0.1c1.9-2.9,5.5-4.2,9-4.2c5.7,0,11.8,4.6,11.8,15
					c0,10.5-6.1,15.1-11.8,15.1c-4.2,0-7.7-1.3-9.4-4.4H7.5v3.6H0V0z M14.2,16c-4.6,0-6.7,4.4-6.7,9.2c0,4.7,2,9.1,6.7,9.1
					s6.7-4.4,6.7-9.1C20.9,20.4,18.9,16,14.2,16"/>
			</g>
			<g id="Group_131260" transform="translate(30.228 -95.899)">
				<path id="Path_131235" class="st0" d="M0,0h7.5v5.3h0.1c1.6-3.6,5.1-6,9.1-6.1c0.6,0,1.2,0.1,1.7,0.3v7.3
					c-0.9-0.2-1.9-0.3-2.8-0.3c-5.7,0-7.7,4.1-7.7,9.2v12.9H0V0z"/>
			</g>
			<g id="Group_131261" transform="translate(45.852 -87.121)">
				<path id="Path_131236" class="st0" d="M0,0c0.4-7.3,7-9.6,13.4-9.6c5.7,0,12.5,1.3,12.5,8.1v14.9c0,2.6,0.3,5.2,1,6.3H19
					c-0.3-0.9-0.5-1.8-0.6-2.8c-2.5,2.6-6.1,3.5-9.6,3.5c-5.4,0-9.7-2.7-9.7-8.6c0-6.5,4.9-8,9.7-8.7c4.8-0.7,9.3-0.6,9.3-3.8
					c0-3.4-2.3-3.9-5.1-3.9c-3,0-4.9,1.2-5.2,4.3L0,0z M18.1,5.8C16.8,7,14,7,11.6,7.5C9.2,8,6.9,8.8,6.9,11.7
					c0,2.9,2.3,3.6,4.8,3.6c6.1,0,6.3-4.9,6.3-6.6L18.1,5.8z"/>
			</g>
			<g id="Group_131262" transform="translate(86.593 -62.59)">
				<path id="Path_131237" class="st0" d="M0,0c-1.7,4.6-4.4,6.5-9.8,6.5c-1.6,0-3.2-0.1-4.8-0.3v-6.5c1.5,0.2,3,0.3,4.6,0.3
					c2.7-0.3,3.6-3.1,2.7-5.4L-18-33.7h8.4l7.1,21.1h0.1l6.8-21.3h8.1L0,0z"/>
			</g>
			<g id="Group_131263" transform="translate(31.673 -63.174)">
				<path id="Path_131238" class="st1" d="M0,0c8.9,0,14.6,6,14.6,15.1c0,9.1-5.7,15-14.6,15c-8.8,0-14.5-6-14.5-15
					C-14.5,6-8.8,0,0,0 M0,24.2c5.3,0,6.9-4.6,6.9-9.1c0-4.6-1.6-9.2-6.9-9.2c-5.2,0-6.8,4.6-6.8,9.2C-6.8,19.6-5.2,24.2,0,24.2"/>
			</g>
		</g>
	</g>
	<g id="Group_131265" transform="translate(52.155 -48.877)">
		<path id="Path_131240" class="st1" d="M0,0l-9.4-13.5h8.9l5,7.5l5-7.5h8.7L8.8-0.2L19.4,15h-8.9l-6-9l-6,9h-8.8L0,0z"/>
	</g>
	<g>
		<g id="Group_131268">
			<g id="Group_131266" transform="translate(9.406 -10.047)">
				<path id="Path_131241" class="st2" d="M0,0c0.1,3.4,2.9,4.8,6,4.8c2.3,0,5.1-0.9,5.1-3.6c0-2.4-3.3-3.2-8.9-4.4
					c-4.5-1-9.1-2.6-9.1-7.6c0-7.3,6.3-9.2,12.4-9.2c6.2,0,12,2.1,12.6,9.1h-7.5c-0.2-3-2.5-3.9-5.4-3.9c-1.8,0-4.4,0.3-4.4,2.7
					c0,2.8,4.4,3.2,8.9,4.2c4.6,1,9.1,2.7,9.1,8C19,7.6,12.5,10,6,10C-0.7,10-7.1,7.6-7.5,0H0z"/>
			</g>
			<g id="Group_131267" transform="translate(27.679 -29.312)">
				<path id="Path_131242" class="st2" d="M0,0h7.4v3.9h0.1c1.9-2.9,5.2-4.7,8.7-4.6c3.6,0,6.8,1.3,8.3,4.7c1.9-2.9,5.1-4.7,8.6-4.7
					c6.1,0,10.4,2.8,10.4,10.2v19.1h-7.8V12.4c0-3.8-0.3-7-4.8-7c-4.4,0-5.2,3.6-5.2,7.2v15.9h-7.8v-16c0-3.3,0.2-7.1-4.7-7.1
					c-1.5,0-5.3,1-5.3,6.6v16.6H0V0z"/>
			</g>
		</g>
	</g>
	<path id="Path_131244" class="st2" d="M72.9-33.7h7.8v-6.5h-7.8V-33.7z M72.9-40.2v39.4h7.8v-28.5h-7.8V-40.2z"/>
	<g>
		<g id="Group_131272">
			<g id="Group_131269" transform="translate(93.006 -29.312)">
				<path id="Path_131245" class="st2" d="M0,0h5.7v5.2H0v14.1c0,2.6,0.7,3.3,3.3,3.3c0.8,0,1.6-0.1,2.4-0.2v6.1
					c-1.5,0.2-3.1,0.3-4.6,0.3c-4.8,0-9-1.1-9-6.8V5.2h-4.7V0h4.7v-8.6H0V0z"/>
			</g>
			<g id="Group_131270" transform="translate(99.375 -40.189)">
				<path id="Path_131246" class="st2" d="M0,0h7.8v14.9H8c1.8-2.9,4.9-4.7,8.3-4.8c8.3,0,10.4,4.7,10.4,11.8v17.6h-7.8V23.3
					c0-4.7-1.4-7-5-7c-4.2,0-6.1,2.4-6.1,8.2v15H0V0z"/>
			</g>
			<g id="Group_131271" transform="translate(17.691 -72.638)">
				<path id="Path_131247" class="st1" d="M0,0c0.4,0,0.8,0.1,1.3,0.1l0,6c-1.3,0-2-0.1-3-0.1c-2.2,0-3.1,0.9-3.1,3.4v1.8h5.6v5.4
					h-5.6v24h-8.1v-24h-4.8v-5.4h4.8V8.8c0-5.1,3.1-8.8,9.5-8.9C-2.2,0.1-1.1,0.1,0,0"/>
			</g>
		</g>
	</g>
</g>
</svg>
