<?xml version="1.0" encoding="utf-8"?>
<!-- Generator: Adobe Illustrator 27.0.1, SVG Export Plug-In . SVG Version: 6.00 Build 0)  -->
<svg version="1.1" id="Layer_1" xmlns="http://www.w3.org/2000/svg" xmlns:xlink="http://www.w3.org/1999/xlink" x="0px" y="0px"
	 viewBox="0 0 305.4 95.5" style="enable-background:new 0 0 305.4 95.5;" xml:space="preserve">
<style type="text/css">
	.st0{fill:#053E34;}
</style>
<g>
	<path class="st0" d="M114.8,0.8H94.8l0,50.1h6.4V34.3H116c11.2,0,18-6,18-16.7C133.9,7.2,126.9,0.8,114.8,0.8z M115.4,29.4h-14.2
		V6.5h13.3c8.4,0,13.2,4,13.2,11.5C127.7,25.6,123.1,29.4,115.4,29.4z"/>
	<polygon class="st0" points="145.1,0.8 138.7,0.8 138.7,50.8 171.4,50.8 171.4,45 145.1,45 	"/>
	<path class="st0" d="M195.1,0c-14.1,0-25.3,9.8-25.3,25.6c0,16,11.1,26,25.3,26c14.1,0,25.3-10,25.3-26C220.3,9.8,209.2,0,195.1,0z
		 M195.1,45.8c-10.3,0-18.9-7.8-18.9-20.2c0-12.2,8.6-19.8,18.9-19.8c10.3,0,18.9,7.5,18.9,19.8C214,38,205.4,45.8,195.1,45.8z"/>
	<path class="st0" d="M265.7,15c0-8.7-6.2-14.2-18.8-14.2h-20.8v50h6.4V30h15.7c8.3,0,10.6,3.4,10.6,8.7v12.1h6.5V38.7
		c0-6.2-2.3-10.7-9.4-11.6V27C262.9,26.2,265.7,21.5,265.7,15z M246.8,25.3h-14.3V6.5h14.4c8.4,0,12.6,3.4,12.6,9
		C259.4,21.4,255.9,25.3,246.8,25.3z"/>
	<polygon class="st0" points="277.9,45 277.9,28 299.6,28 299.6,23.3 277.9,23.3 277.9,6.5 304.7,6.5 304.7,0.8 271.5,0.8 
		271.5,50.8 305.4,50.8 305.4,45 	"/>
	<polygon class="st0" points="33.8,45 6.4,45 6.4,30.6 6.4,21.4 6.4,6.5 33.2,6.5 33.2,0.8 0,0.8 0,50.8 33.8,50.8 	"/>
	<polygon class="st0" points="13.7,23 13.7,28.5 54.5,28.5 37.9,50.8 45.8,50.8 60.6,30.9 64.1,26.2 67.7,30.9 82.5,50.8 90.4,50.8 
		71.6,25.6 72.1,25 72.2,24.8 90.1,0.8 82.2,0.8 71.3,15.5 67.7,20.3 64.1,25.1 60.6,20.3 57,15.5 46.1,0.8 38.1,0.8 54.7,23 	"/>
	<path class="st0" d="M0.4,65.9v11.6h2v-4H5c2.3,0,3.8-1.6,3.8-3.8c0-2.3-1.5-3.8-3.8-3.8H0.4z M6.7,69.7c0,1.3-0.7,2-2.1,2H2.4v-4
		h2.2C5.9,67.7,6.7,68.4,6.7,69.7z"/>
	<path class="st0" d="M16.6,74.9l0.9,2.7h2.1l-4.2-11.6h-2.1L9.2,77.5h2.1l0.9-2.7H16.6z M14.2,69.4c0.1-0.3,0.2-0.7,0.3-0.9
		c0,0.2,0.1,0.6,0.2,0.9l1.3,3.7h-3.1L14.2,69.4z"/>
	<path class="st0" d="M28,72.8c1.4-0.6,2.1-1.7,2.1-3.2c0-2.3-1.5-3.6-4.2-3.6h-4.4v11.6h2v-4.3H26l2,4.3h2.2L28,72.8z M25.9,71.4
		h-2.4v-3.7h2.4c1.3,0,2,0.7,2,1.8C28,70.7,27.2,71.4,25.9,71.4z"/>
	<path class="st0" d="M37.7,65.9h-2.1l-4.2,11.6h2.1l0.9-2.7h4.3l0.9,2.7h2.1L37.7,65.9z M35.1,73.1l1.3-3.7
		c0.1-0.3,0.2-0.7,0.3-0.9c0,0.2,0.1,0.6,0.2,0.9l1.3,3.7H35.1z"/>
	<path class="st0" d="M47.8,65.9h-4.1v11.6h4.2c3.4,0,5.7-2.4,5.7-5.8C53.6,68.3,51.2,65.9,47.8,65.9z M47.7,75.7h-2v-7.9h1.8
		c2.4,0,3.8,1.5,3.8,4C51.5,74.2,50.1,75.7,47.7,75.7z"/>
	<rect x="55.9" y="65.9" class="st0" width="2" height="11.6"/>
	<path class="st0" d="M65.5,71l-1.8-0.4c-1-0.2-1.4-0.7-1.4-1.5c0-1,0.8-1.6,2.1-1.6c1.1,0,1.9,0.6,1.9,1.6h2
		c-0.1-2.1-1.6-3.4-3.9-3.4c-2.4,0-4.1,1.4-4.1,3.4c0,1.8,1,2.9,3,3.3l1.8,0.4c1,0.2,1.3,0.7,1.3,1.4c0,1-0.9,1.6-2.2,1.6
		c-1.3,0-2.1-0.6-2.1-1.6h-2c0,2.1,1.7,3.4,4.1,3.4c2.6,0,4.2-1.4,4.2-3.6C68.4,72.5,67.5,71.4,65.5,71z"/>
	<polygon class="st0" points="70.7,77.5 77.9,77.5 77.9,75.7 72.7,75.7 72.7,72.6 77.4,72.6 77.4,70.8 72.7,70.8 72.7,67.8 
		77.9,67.8 77.9,65.9 70.7,65.9 	"/>
	<path class="st0" d="M93.8,69.6c0-2.3-1.5-3.6-4.2-3.6h-4.4v11.6h2v-4.3h2.5l2,4.3h2.2l-2.2-4.8C93.1,72.2,93.8,71.1,93.8,69.6z
		 M89.6,71.4h-2.4v-3.7h2.4c1.3,0,2,0.7,2,1.8C91.7,70.7,90.9,71.4,89.6,71.4z"/>
	<path class="st0" d="M101.1,65.7c-3.3,0-5.6,2.5-5.6,6c0,3.5,2.3,6,5.6,6c3.3,0,5.7-2.5,5.7-6C106.8,68.2,104.5,65.7,101.1,65.7z
		 M101.1,75.8c-2.1,0-3.5-1.6-3.5-4c0-2.5,1.4-4,3.5-4c2.1,0,3.5,1.6,3.5,4C104.6,74.2,103.3,75.8,101.1,75.8z"/>
	<path class="st0" d="M111.6,65.9l-4.2,11.6h2.1l0.9-2.7h4.3l0.9,2.7h2.1l-4.2-11.6H111.6z M111,73.1l1.3-3.7
		c0.1-0.3,0.2-0.7,0.3-0.9c0,0.2,0.1,0.6,0.2,0.9l1.3,3.7H111z"/>
	<path class="st0" d="M123.8,65.9h-4.1v11.6h4.2c3.4,0,5.7-2.4,5.7-5.8C129.5,68.3,127.2,65.9,123.8,65.9z M123.7,75.7h-2v-7.9h1.8
		c2.4,0,3.8,1.5,3.8,4C127.4,74.2,126,75.7,123.7,75.7z"/>
	<path class="st0" d="M9,87.5c0-2.3-1.5-3.6-4.2-3.6H0.4v11.6h2v-4.3h2.5l2,4.3h2.2l-2.2-4.8C8.3,90.2,9,89.1,9,87.5z M4.8,89.4H2.4
		v-3.7h2.4c1.3,0,2,0.7,2,1.8C6.9,88.7,6.1,89.4,4.8,89.4z"/>
	<rect x="11.4" y="83.9" class="st0" width="2" height="11.6"/>
	<path class="st0" d="M21.4,93.8c-2.1,0-3.5-1.6-3.5-4c0-2.5,1.3-4,3.5-4c1.5,0,2.7,0.8,3.1,2.1h2.1c-0.4-2.5-2.4-4.1-5.2-4.1
		c-3.4,0-5.7,2.4-5.7,6c0,3.6,2.2,6,5.6,6c2.7,0,4.9-1.6,5.3-4.1h-2.1C24.1,92.9,22.9,93.8,21.4,93.8z"/>
	<polygon class="st0" points="36,88.7 30.9,88.7 30.9,83.9 28.9,83.9 28.9,95.5 30.9,95.5 30.9,90.6 36,90.6 36,95.5 38.1,95.5 
		38.1,83.9 36,83.9 	"/>
	<path class="st0" d="M46.7,93.2L43,83.9h-2v11.6h2v-4.2c0-1.4,0-2.5-0.1-3.2l2.9,7.4h1.9l3-7.4c-0.1,0.8-0.1,1.5-0.1,3.8v3.6h2
		V83.9h-2L46.7,93.2z"/>
	<path class="st0" d="M60.4,83.7c-3.3,0-5.6,2.5-5.6,6c0,3.5,2.3,6,5.6,6c3.3,0,5.7-2.5,5.7-6C66.1,86.2,63.7,83.7,60.4,83.7z
		 M60.4,93.8c-2.1,0-3.5-1.6-3.5-4c0-2.5,1.4-4,3.5-4c2.1,0,3.5,1.6,3.5,4C63.9,92.2,62.5,93.8,60.4,93.8z"/>
	<polygon class="st0" points="75.8,92.1 70.4,83.9 68.3,83.9 68.3,95.5 70.3,95.5 70.3,87.3 75.8,95.5 77.8,95.5 77.8,83.9 
		75.8,83.9 	"/>
	<path class="st0" d="M84.8,83.9h-4.1v11.6h4.2c3.4,0,5.7-2.4,5.7-5.8C90.6,86.3,88.3,83.9,84.8,83.9z M84.8,93.7h-2v-7.9h1.8
		c2.4,0,3.8,1.5,3.8,4C88.5,92.2,87.1,93.7,84.8,93.7z"/>
</g>
</svg>
