<svg version="1.1" id="Layer_1" xmlns="http://www.w3.org/2000/svg" x="0" y="0" viewBox="0 0 305.4 95.5" style="enable-background:new 0 0 305.4 95.5" xml:space="preserve"><style>.st0{fill:#053e34}</style><path class="st0" d="M114.8.8h-20v50.1h6.4V34.3H116c11.2 0 18-6 18-16.7C133.9 7.2 126.9.8 114.8.8zm.6 28.6h-14.2V6.5h13.3c8.4 0 13.2 4 13.2 11.5 0 7.6-4.6 11.4-12.3 11.4zM145.1.8h-6.4v50h32.7V45h-26.3zM195.1 0c-14.1 0-25.3 9.8-25.3 25.6 0 16 11.1 26 25.3 26 14.1 0 25.3-10 25.3-26C220.3 9.8 209.2 0 195.1 0zm0 45.8c-10.3 0-18.9-7.8-18.9-20.2 0-12.2 8.6-19.8 18.9-19.8 10.3 0 18.9 7.5 18.9 19.8 0 12.4-8.6 20.2-18.9 20.2zM265.7 15c0-8.7-6.2-14.2-18.8-14.2h-20.8v50h6.4V30h15.7c8.3 0 10.6 3.4 10.6 8.7v12.1h6.5V38.7c0-6.2-2.3-10.7-9.4-11.6V27c7-.8 9.8-5.5 9.8-12zm-18.9 10.3h-14.3V6.5h14.4c8.4 0 12.6 3.4 12.6 9-.1 5.9-3.6 9.8-12.7 9.8zM277.9 45V28h21.7v-4.7h-21.7V6.5h26.8V.8h-33.2v50h33.9V45zM33.8 45H6.4V6.5h26.8V.8H0v50h33.8z"/><path class="st0" d="M13.7 23v5.5h40.8L37.9 50.8h7.9l14.8-19.9 3.5-4.7 3.6 4.7 14.8 19.9h7.9L71.6 25.6l.5-.6.1-.2L90.1.8h-7.9L71.3 15.5l-3.6 4.8-3.6 4.8-3.5-4.8-3.6-4.8L46.1.8h-8L54.7 23zM.4 65.9v11.6h2v-4H5c2.3 0 3.8-1.6 3.8-3.8 0-2.3-1.5-3.8-3.8-3.8H.4zm6.3 3.8c0 1.3-.7 2-2.1 2H2.4v-4h2.2c1.3 0 2.1.7 2.1 2zM16.6 74.9l.9 2.7h2.1L15.4 66h-2.1L9.2 77.5h2.1l.9-2.7h4.4zm-2.4-5.5c.1-.3.2-.7.3-.9 0 .2.1.6.2.9l1.3 3.7h-3.1l1.3-3.7zM28 72.8c1.4-.6 2.1-1.7 2.1-3.2 0-2.3-1.5-3.6-4.2-3.6h-4.4v11.6h2v-4.3H26l2 4.3h2.2L28 72.8zm-2.1-1.4h-2.4v-3.7h2.4c1.3 0 2 .7 2 1.8.1 1.2-.7 1.9-2 1.9zM37.7 65.9h-2.1l-4.2 11.6h2.1l.9-2.7h4.3l.9 2.7h2.1l-4-11.6zm-2.6 7.2 1.3-3.7c.1-.3.2-.7.3-.9 0 .2.1.6.2.9l1.3 3.7h-3.1zM47.8 65.9h-4.1v11.6h4.2c3.4 0 5.7-2.4 5.7-5.8s-2.4-5.8-5.8-5.8zm-.1 9.8h-2v-7.9h1.8c2.4 0 3.8 1.5 3.8 4 .2 2.4-1.2 3.9-3.6 3.9zM55.9 65.9h2v11.6h-2zM65.5 71l-1.8-.4c-1-.2-1.4-.7-1.4-1.5 0-1 .8-1.6 2.1-1.6 1.1 0 1.9.6 1.9 1.6h2c-.1-2.1-1.6-3.4-3.9-3.4-2.4 0-4.1 1.4-4.1 3.4 0 1.8 1 2.9 3 3.3l1.8.4c1 .2 1.3.7 1.3 1.4 0 1-.9 1.6-2.2 1.6-1.3 0-2.1-.6-2.1-1.6h-2c0 2.1 1.7 3.4 4.1 3.4 2.6 0 4.2-1.4 4.2-3.6 0-1.5-.9-2.6-2.9-3zM70.7 77.5h7.2v-1.8h-5.2v-3.1h4.7v-1.8h-4.7v-3h5.2v-1.9h-7.2zM93.8 69.6c0-2.3-1.5-3.6-4.2-3.6h-4.4v11.6h2v-4.3h2.5l2 4.3h2.2l-2.2-4.8c1.4-.6 2.1-1.7 2.1-3.2zm-4.2 1.8h-2.4v-3.7h2.4c1.3 0 2 .7 2 1.8.1 1.2-.7 1.9-2 1.9zM101.1 65.7c-3.3 0-5.6 2.5-5.6 6s2.3 6 5.6 6 5.7-2.5 5.7-6-2.3-6-5.7-6zm0 10.1c-2.1 0-3.5-1.6-3.5-4 0-2.5 1.4-4 3.5-4s3.5 1.6 3.5 4-1.3 4-3.5 4zM111.6 65.9l-4.2 11.6h2.1l.9-2.7h4.3l.9 2.7h2.1l-4.2-11.6h-1.9zm-.6 7.2 1.3-3.7c.1-.3.2-.7.3-.9 0 .2.1.6.2.9l1.3 3.7H111zM123.8 65.9h-4.1v11.6h4.2c3.4 0 5.7-2.4 5.7-5.8-.1-3.4-2.4-5.8-5.8-5.8zm-.1 9.8h-2v-7.9h1.8c2.4 0 3.8 1.5 3.8 4 .1 2.4-1.3 3.9-3.6 3.9zM9 87.5c0-2.3-1.5-3.6-4.2-3.6H.4v11.6h2v-4.3h2.5l2 4.3h2.2l-2.2-4.8c1.4-.5 2.1-1.6 2.1-3.2zm-4.2 1.9H2.4v-3.7h2.4c1.3 0 2 .7 2 1.8.1 1.2-.7 1.9-2 1.9zM11.4 83.9h2v11.6h-2zM21.4 93.8c-2.1 0-3.5-1.6-3.5-4 0-2.5 1.3-4 3.5-4 1.5 0 2.7.8 3.1 2.1h2.1c-.4-2.5-2.4-4.1-5.2-4.1-3.4 0-5.7 2.4-5.7 6s2.2 6 5.6 6c2.7 0 4.9-1.6 5.3-4.1h-2.1c-.4 1.2-1.6 2.1-3.1 2.1zM36 88.7h-5.1v-4.8h-2v11.6h2v-4.9H36v4.9h2.1V83.9H36zM46.7 93.2 43 83.9h-2v11.6h2v-4.2c0-1.4 0-2.5-.1-3.2l2.9 7.4h1.9l3-7.4c-.1.8-.1 1.5-.1 3.8v3.6h2V83.9h-2l-3.9 9.3zM60.4 83.7c-3.3 0-5.6 2.5-5.6 6s2.3 6 5.6 6 5.7-2.5 5.7-6-2.4-6-5.7-6zm0 10.1c-2.1 0-3.5-1.6-3.5-4 0-2.5 1.4-4 3.5-4s3.5 1.6 3.5 4-1.4 4-3.5 4zM75.8 92.1l-5.4-8.2h-2.1v11.6h2v-8.2l5.5 8.2h2V83.9h-2zM84.8 83.9h-4.1v11.6h4.2c3.4 0 5.7-2.4 5.7-5.8s-2.3-5.8-5.8-5.8zm0 9.8h-2v-7.9h1.8c2.4 0 3.8 1.5 3.8 4 .1 2.4-1.3 3.9-3.6 3.9z"/></svg>